<?xml version="1.0" encoding="UTF-8"?><!DOCTYPE svg PUBLIC "-//W3C//DTD SVG 1.1//EN" "http://www.w3.org/Graphics/SVG/1.1/DTD/svg11.dtd"><svg xmlns="http://www.w3.org/2000/svg" xmlns:xlink="http://www.w3.org/1999/xlink"><defs><clipPath id="clip0"><path fill="#fff" d="M0 0h20v20H0z"/></clipPath><linearGradient id="paint0_linear" x1="10" y1="30" x2="10" y2="0" gradientUnits="userSpaceOnUse"><stop stop-color="#0426A0"/><stop offset="1" stop-color="#0426A0" stop-opacity="0"/></linearGradient><linearGradient id="paint1_linear" x1="30" y1="40" x2="30" y2="10" gradientUnits="userSpaceOnUse"><stop stop-color="#989898"/><stop offset="1" stop-color="#989898" stop-opacity="0"/></linearGradient><linearGradient id="paint0_linear" x1="30" y1="40" x2="30" y2="10" gradientUnits="userSpaceOnUse"><stop stop-color="#989898" stop-opacity="0"/><stop offset="1" stop-color="#989898"/></linearGradient><linearGradient id="paint1_linear" x1="10" y1="10" x2="10" y2="40" gradientUnits="userSpaceOnUse"><stop stop-color="#0426A0" stop-opacity="0"/><stop offset="1" stop-color="#0426A0"/></linearGradient><linearGradient id="paint2_linear" x1="30" y1="30" x2="30" y2="0" gradientUnits="userSpaceOnUse"><stop stop-color="#989898" stop-opacity="0"/><stop offset="1" stop-color="#989898"/></linearGradient><linearGradient id="paint0_linear" x1="30" y1="40" x2="30" y2="10" gradientUnits="userSpaceOnUse"><stop stop-color="#989898" stop-opacity="0"/><stop offset="1" stop-color="#989898"/></linearGradient><linearGradient id="paint1_linear" x1="30" y1="30" x2="30" y2="0" gradientUnits="userSpaceOnUse"><stop stop-color="#989898" stop-opacity="0"/><stop offset="1" stop-color="#989898"/></linearGradient><linearGradient id="paint2_linear" x1="10" y1="40" x2="10" y2="10" gradientUnits="userSpaceOnUse"><stop stop-color="#0426A0" stop-opacity="0"/><stop offset="1" stop-color="#0426A0"/></linearGradient><linearGradient id="paint0_linear" x1="30" y1="30" x2="30" y2="0" gradientUnits="userSpaceOnUse"><stop stop-color="#989898" stop-opacity="0"/><stop offset="1" stop-color="#989898"/></linearGradient><linearGradient id="paint1_linear" x1="10" y1="30" x2="10" y2="0" gradientUnits="userSpaceOnUse"><stop stop-color="#989898" stop-opacity="0"/><stop offset="1" stop-color="#989898"/></linearGradient><linearGradient id="paint2_linear" x1="10" y1="40" x2="10" y2="10" gradientUnits="userSpaceOnUse"><stop stop-color="#0426A0" stop-opacity="0"/><stop offset="1" stop-color="#0426A0"/></linearGradient><linearGradient id="paint0_linear" x1="10" y1="30" x2="10" y2="0" gradientUnits="userSpaceOnUse"><stop stop-color="#0426A0"/><stop offset="1" stop-color="#0426A0" stop-opacity="0"/></linearGradient><linearGradient id="paint1_linear" x1="30" y1="40" x2="30" y2="10" gradientUnits="userSpaceOnUse"><stop stop-color="#989898"/><stop offset="1" stop-color="#989898" stop-opacity="0"/></linearGradient><linearGradient id="paint0_linear" x1="30" y1="40" x2="30" y2="10" gradientUnits="userSpaceOnUse"><stop stop-color="#989898" stop-opacity="0"/><stop offset="1" stop-color="#989898"/></linearGradient><linearGradient id="paint1_linear" x1="30" y1="30" x2="30" y2="0" gradientUnits="userSpaceOnUse"><stop stop-color="#989898" stop-opacity="0"/><stop offset="1" stop-color="#989898"/></linearGradient><linearGradient id="paint2_linear" x1="10" y1="40" x2="10" y2="10" gradientUnits="userSpaceOnUse"><stop stop-color="#0426A0" stop-opacity="0"/><stop offset="1" stop-color="#0426A0"/></linearGradient></defs><symbol id="arrow-down"><path display="var(--is-visible--xxxl)" d="M2 16.625L15 28m0 0l13-11.375M15 28V2" fill="none" stroke="currentColor" stroke-width="1.5"/><path display="var(--is-visible--md-xxl)" d="M7 16l8 7m0 0l8-7m-8 7V7" fill="none" stroke="currentColor" stroke-width="1.5"/><path display="var(--is-visible--sm-down)" d="M7 16l8 7m0 0l8-7m-8 7V7" fill="none" stroke="currentColor" stroke-width="1.5"/></symbol><symbol id="arrow-left"><path display="var(--is-visible--xxxl)" d="M13.375 28L2 15m0 0L13.375 2M2 15h26" fill="none" stroke="currentColor" stroke-width="1.5"/><path display="var(--is-visible--md-xxl)" d="M14 23l-7-8m0 0l7-8m-7 8h16" fill="none" stroke="currentColor" stroke-width="1.5"/><path display="var(--is-visible--sm-down)" d="M14 23l-7-8m0 0l7-8m-7 8h16" fill="none" stroke="currentColor" stroke-width="1.5"/></symbol><symbol id="arrow-link"><path d="M1.5 1H9m0 0v7.5M9 1L.888 9.39" fill="none" stroke="currentColor" stroke-width="1.5"/></symbol><symbol id="arrow-right-xl"><path display="var(--is-visible--xxxl)" d="M90 3l70 80m0 0l-70 80m70-80H0" fill="none" stroke="currentColor" stroke-width="1.5"/><path display="var(--is-visible--md-xxl)" d="M91 37l42 48m0 0l-42 48m42-48H37" fill="none" stroke="currentColor" stroke-width="1.5"/><path display="var(--is-visible--sm-down)" d="M86.25 75L95 85m0 0l-8.75 10M95 85H75" fill="none" stroke="currentColor" stroke-width="1.5"/></symbol><symbol id="arrow-right"><path display="var(--is-visible--xxxl)" d="M16.625 28L28 15m0 0L16.625 2M28 15H2" fill="none" stroke="currentColor" stroke-width="1.5"/><path display="var(--is-visible--md-xxl)" d="M16 23l7-8m0 0l-7-8m7 8H7" fill="none" stroke="currentColor" stroke-width="1.5"/><path display="var(--is-visible--sm-down)" d="M16 23l7-8m0 0l-7-8m7 8H7" fill="none" stroke="currentColor" stroke-width="1.5"/></symbol><symbol id="arrow-up"><path display="var(--is-visible--xxxl)" d="M2 13.375L15 2m0 0l13 11.375M15 2v26" fill="none" stroke="currentColor" stroke-width="1.5"/><path display="var(--is-visible--md-xxl)" d="M7 14l8-7m0 0l8 7m-8-7v16" fill="none" stroke="currentColor" stroke-width="1.5"/><path display="var(--is-visible--sm-down)" d="M7 14l8-7m0 0l8 7m-8-7v16" fill="none" stroke="currentColor" stroke-width="1.5"/></symbol><symbol id="browser-chrome"><g clip-path="url(#clip0)" fill="#0426A0"><path d="M2.416 3.485c4.649-5.41 13.269-4.343 16.49 1.977-2.269.002-5.82 0-7.743 0-1.396 0-2.297-.03-3.272.483a4.612 4.612 0 00-2.314 3.037l-3.16-5.497z"/><path d="M6.672 10a3.328 3.328 0 003.324 3.326A3.328 3.328 0 0013.32 10a3.328 3.328 0 00-3.324-3.325A3.326 3.326 0 006.672 10z"/><path d="M11.286 14.353c-1.865.554-4.049-.06-5.244-2.125-.912-1.575-3.325-5.776-4.42-7.687-3.84 5.885-.53 13.903 6.44 15.272l3.224-5.46z"/><path d="M13.085 6.675a4.553 4.553 0 01.84 5.598c-.793 1.368-3.324 5.639-4.55 7.707 7.18.442 12.416-6.596 10.05-13.307l-6.34.002z"/></g></symbol><symbol id="browser-firefox"><path d="M19.284 6.633a9.595 9.595 0 00-.382-.814c0-.002-.002-.003-.003-.005a9.749 9.749 0 00-.038-.073l-.005-.008a9.057 9.057 0 00-.038-.07l-.006-.01a9.103 9.103 0 00-.038-.069l-.006-.01a9.23 9.23 0 00-.039-.069l-.004-.007a9.649 9.649 0 00-.176-.293l-.004-.007-.033-.052-.017-.027-.03-.046-.02-.032-.029-.043-.023-.035-.027-.04a6.447 6.447 0 00-.188-.27 5.746 5.746 0 00-.024-.033l-.033-.044-.023-.03-.036-.05-.02-.025-.056-.073a9.808 9.808 0 00-.943-1.041 7.857 7.857 0 00-.751-.662 6.93 6.93 0 00-.501-.383 6.545 6.545 0 00-1.01-.599A10.326 10.326 0 0011.965.75a9.627 9.627 0 00-1.81-.162 10.053 10.053 0 00-2.022.2c-1.42.29-2.67.887-3.46 1.633l.004-.002a2.169 2.169 0 01.002-.001l.005-.003-.003.003a.587.587 0 01.01-.007c.591-.345 1.407-.624 1.99-.767a8.654 8.654 0 01.163-.038l.04-.009.232-.047.024-.005.076-.014c2.584-.458 5.34.293 7.258 2.078.413.384.783.814 1.082 1.287 1.224 1.931 1.109 4.36.154 5.791-.709 1.064-2.227 2.062-3.643 2.051l.086.004a3.862 3.862 0 01-.14-.006h-.005a4.697 4.697 0 01-1.751-.426C8.008 11.242 7.66 8.49 9.26 7.166c-.526-.11-1.516.106-2.205 1.106-.618.897-.583 2.283-.202 3.265a5.147 5.147 0 01-.49-1.536C5.88 6.838 8.006 4.13 10.02 3.367c.048-.018.097-.036.145-.052-.433-.367-1.121-.581-1.922-.617-1.185-.054-2.617.28-3.837 1.083a6.266 6.266 0 00-.196.134v.001a6.576 6.576 0 00-.1.072l-.02.016a6.592 6.592 0 00-.096.073l-.017.013-.089.07-.01.01a6.638 6.638 0 00-.207.174l-.003.003a6.61 6.61 0 00-.092.083l-.011.01-.092.087-.01.01c-.062.06-.123.121-.183.184l-.007.007A6.9 6.9 0 001.69 7.456c.049-.588.226-1.383.565-2.247v-.002l.044-.108.003-.008.043-.103.005-.013.043-.1.007-.017a10.316 10.316 0 01.096-.214l.01-.02c.014-.033.03-.065.045-.097l.01-.02.047-.098.01-.02c.016-.032.032-.065.05-.098l.008-.017.049-.095.005-.01c-.23.116-.482.315-.731.567A6.502 6.502 0 00.72 6.635C.238 7.763-.004 9.062 0 10.36c.001.391.025.783.07 1.17l.008.059c.011.098.022.197.035.295l.003.021C.921 16.502 5.034 20 9.986 20 15.516 20 20 15.638 20 10.258a9.483 9.483 0 00-.716-3.625z" fill="#0426A0"/></symbol><symbol id="browser-safari"><path d="M10 20c5.523 0 10-4.477 10-10S15.523 0 10 0 0 4.477 0 10s4.477 10 10 10z" fill="#0426A0"/><path d="M8.75 8.75l-5 7.5 7.5-5-2.5-2.5z" fill="#fff"/><path opacity=".5" d="M8.75 8.75l2.5 2.5 5-7.5-7.5 5z" fill="#fff"/></symbol><symbol id="checkbox-map"><path d="M19 4L7 10 1 7v6l6 3 12-6V4z" fill="currentColor"/></symbol><symbol id="close-lg"><path display="var(--is-visible--xs-xxl)" d="M8 8l14 14M8 22L22 8" fill="none" stroke="currentColor" stroke-width="1.5"/><path display="var(--is-visible--xxxl)" d="M6.515 6.515l16.97 16.97M6.515 23.485l16.97-16.97" fill="none" stroke="currentColor" stroke-width="1.5"/></symbol><symbol id="close-sm"><path d="M5 5l10 10M5 15L15 5" fill="none" stroke="currentColor" stroke-width="1.5"/></symbol><symbol id="close-xs"><path d="M8 2L2 8m0-6l6 6" fill="none" stroke="currentColor" stroke-width="1.2"/></symbol><symbol id="close"><path display="var(--is-visible--xs-xxl)" d="M9.343 9.343l11.314 11.314M9.343 20.657L20.657 9.343" fill="none" stroke="currentColor" stroke-width="1.5"/><path display="var(--is-visible--xxxl)" d="M6.515 6.515l16.97 16.97M6.515 23.485l16.97-16.97" fill="none" stroke="currentColor" stroke-width="1.5"/></symbol><symbol id="dropdown"><path d="M10 13l5 4 5-4" fill="none" stroke="currentColor" stroke-width="1.5"/></symbol><symbol id="globe"><path display="var(--is-visible--xxxl)" d="M19.25 3v34h1.5V3h-1.5zM3 20.75h34v-1.5H3v1.5zM27.75 20c0 4.603-.934 8.734-2.41 11.685-1.499 2.997-3.43 4.565-5.34 4.565v1.5c2.784 0 5.103-2.238 6.681-5.394 1.6-3.2 2.569-7.57 2.569-12.356h-1.5zM20 36.25c-1.91 0-3.841-1.568-5.34-4.565-1.476-2.951-2.41-7.082-2.41-11.685h-1.5c0 4.786.968 9.155 2.569 12.356 1.578 3.156 3.897 5.394 6.681 5.394v-1.5zM12.25 20c0-4.603.934-8.734 2.41-11.685C16.16 5.318 18.09 3.75 20 3.75v-1.5c-2.784 0-5.103 2.238-6.681 5.394-1.6 3.2-2.569 7.57-2.569 12.356h1.5zM20 3.75c1.91 0 3.841 1.568 5.34 4.565 1.476 2.951 2.41 7.082 2.41 11.685h1.5c0-4.786-.968-9.155-2.569-12.356C25.103 4.488 22.784 2.25 20 2.25v1.5zM36.25 20c0 8.975-7.275 16.25-16.25 16.25v1.5c9.803 0 17.75-7.947 17.75-17.75h-1.5zM20 36.25c-8.975 0-16.25-7.275-16.25-16.25h-1.5c0 9.803 7.947 17.75 17.75 17.75v-1.5zM3.75 20c0-8.975 7.275-16.25 16.25-16.25v-1.5C10.197 2.25 2.25 10.197 2.25 20h1.5zM20 3.75c8.975 0 16.25 7.275 16.25 16.25h1.5c0-9.803-7.947-17.75-17.75-17.75v1.5z" fill="currentColor"/><path display="var(--is-visible--md-xxl)" d="M19.25 9v22h1.5V9h-1.5zM9 20.75h22v-1.5H9v1.5zM24.75 20c0 2.946-.599 5.577-1.532 7.443-.955 1.91-2.136 2.807-3.218 2.807v1.5c1.956 0 3.525-1.566 4.56-3.636 1.058-2.116 1.69-4.985 1.69-8.114h-1.5zM20 30.25c-1.082 0-2.263-.896-3.218-2.807-.933-1.866-1.532-4.497-1.532-7.443h-1.5c0 3.129.633 5.998 1.69 8.114 1.035 2.07 2.604 3.636 4.56 3.636v-1.5zM15.25 20c0-2.946.599-5.577 1.532-7.443.955-1.91 2.136-2.807 3.218-2.807v-1.5c-1.956 0-3.525 1.566-4.56 3.636-1.057 2.116-1.69 4.985-1.69 8.114h1.5zM20 9.75c1.082 0 2.263.896 3.218 2.807.933 1.866 1.532 4.497 1.532 7.443h1.5c0-3.129-.633-5.998-1.69-8.114C23.525 9.816 21.956 8.25 20 8.25v1.5zM30.25 20c0 5.66-4.59 10.25-10.25 10.25v1.5c6.49 0 11.75-5.26 11.75-11.75h-1.5zM20 30.25c-5.66 0-10.25-4.59-10.25-10.25h-1.5c0 6.49 5.26 11.75 11.75 11.75v-1.5zM9.75 20c0-5.66 4.59-10.25 10.25-10.25v-1.5C13.51 8.25 8.25 13.51 8.25 20h1.5zM20 9.75c5.66 0 10.25 4.59 10.25 10.25h1.5c0-6.49-5.26-11.75-11.75-11.75v1.5z" fill="currentColor"/><path display="var(--is-visible--sm-down)" d="M19.25 12v16h1.5V12h-1.5zM12 20.75h16v-1.5H12v1.5zM23.25 20c0 2.118-.43 3.998-1.092 5.321-.684 1.368-1.49 1.929-2.158 1.929v1.5c1.542 0 2.735-1.23 3.5-2.758.785-1.572 1.25-3.692 1.25-5.992h-1.5zM20 27.25c-.667 0-1.474-.56-2.158-1.929-.661-1.323-1.092-3.203-1.092-5.321h-1.5c0 2.3.465 4.42 1.25 5.992.765 1.528 1.958 2.758 3.5 2.758v-1.5zM16.75 20c0-2.118.43-3.998 1.092-5.321.684-1.368 1.49-1.929 2.158-1.929v-1.5c-1.542 0-2.735 1.23-3.5 2.758-.785 1.572-1.25 3.692-1.25 5.992h1.5zM20 12.75c.667 0 1.474.56 2.158 1.929.661 1.323 1.092 3.203 1.092 5.321h1.5c0-2.3-.465-4.42-1.25-5.992-.765-1.528-1.958-2.758-3.5-2.758v1.5zM27.25 20A7.25 7.25 0 0120 27.25v1.5A8.75 8.75 0 0028.75 20h-1.5zM20 27.25A7.25 7.25 0 0112.75 20h-1.5A8.75 8.75 0 0020 28.75v-1.5zM12.75 20A7.25 7.25 0 0120 12.75v-1.5A8.75 8.75 0 0011.25 20h1.5zM20 12.75A7.25 7.25 0 0127.25 20h1.5A8.75 8.75 0 0020 11.25v1.5z" fill="currentColor"/></symbol><symbol id="logo-text"><path d="M8.694 2.776h-5.04v2.988H8.55V8.14H3.654V13H1.17V.4h7.524v2.376zm9.01 9.108c-.924.912-2.052 1.368-3.384 1.368-1.332 0-2.46-.456-3.384-1.368-.912-.924-1.368-2.052-1.368-3.384 0-1.332.456-2.454 1.368-3.366.924-.924 2.052-1.386 3.384-1.386 1.332 0 2.46.462 3.384 1.386.924.912 1.386 2.034 1.386 3.366 0 1.332-.462 2.46-1.386 3.384zm-5.13-1.602c.468.468 1.05.702 1.746.702s1.278-.234 1.746-.702c.468-.468.702-1.062.702-1.782s-.234-1.314-.702-1.782c-.468-.468-1.05-.702-1.746-.702s-1.278.234-1.746.702c-.456.468-.684 1.062-.684 1.782s.228 1.314.684 1.782zm15.458 1.602c-.924.912-2.052 1.368-3.384 1.368-1.332 0-2.46-.456-3.384-1.368-.912-.924-1.369-2.052-1.369-3.384 0-1.332.457-2.454 1.369-3.366.924-.924 2.052-1.386 3.384-1.386 1.332 0 2.46.462 3.384 1.386.924.912 1.386 2.034 1.386 3.366 0 1.332-.462 2.46-1.386 3.384zm-5.13-1.602c.467.468 1.05.702 1.745.702.697 0 1.279-.234 1.747-.702.468-.468.702-1.062.702-1.782s-.235-1.314-.703-1.782c-.468-.468-1.05-.702-1.745-.702-.697 0-1.279.234-1.747.702-.456.468-.683 1.062-.683 1.782s.227 1.314.683 1.782zM37.513.4h2.322V13h-2.322v-1.062c-.684.876-1.656 1.314-2.916 1.314-1.212 0-2.25-.456-3.114-1.368-.852-.924-1.278-2.052-1.278-3.384 0-1.332.426-2.454 1.278-3.366.864-.924 1.902-1.386 3.114-1.386 1.26 0 2.232.438 2.916 1.314V.4zm-4.284 9.936c.48.468 1.08.702 1.8.702s1.314-.234 1.782-.702c.468-.48.702-1.092.702-1.836s-.234-1.35-.702-1.818c-.468-.48-1.062-.72-1.782-.72s-1.32.24-1.8.72c-.468.468-.702 1.074-.702 1.818s.234 1.356.702 1.836zM7.146 30.252c-1.896 0-3.462-.63-4.698-1.89C1.212 27.102.594 25.548.594 23.7c0-1.86.618-3.414 1.854-4.662 1.236-1.26 2.802-1.89 4.698-1.89 1.14 0 2.19.27 3.15.81.972.528 1.728 1.248 2.268 2.16l-2.142 1.242a3.267 3.267 0 00-1.332-1.314c-.576-.324-1.224-.486-1.944-.486-1.224 0-2.214.384-2.97 1.152-.744.768-1.116 1.764-1.116 2.988 0 1.212.372 2.202 1.116 2.97.756.768 1.746 1.152 2.97 1.152.72 0 1.368-.156 1.944-.468a3.268 3.268 0 001.332-1.314l2.142 1.242a5.948 5.948 0 01-2.25 2.178c-.96.528-2.016.792-3.168.792zm14.197-1.368c-.924.912-2.052 1.368-3.384 1.368-1.332 0-2.46-.456-3.384-1.368-.912-.924-1.368-2.052-1.368-3.384 0-1.332.456-2.454 1.368-3.366.924-.924 2.052-1.386 3.384-1.386 1.332 0 2.46.462 3.384 1.386.924.912 1.386 2.034 1.386 3.366 0 1.332-.462 2.46-1.386 3.384zm-5.13-1.602c.468.468 1.05.702 1.746.702s1.278-.234 1.746-.702c.468-.468.702-1.062.702-1.782s-.234-1.314-.702-1.782c-.468-.468-1.05-.702-1.746-.702s-1.278.234-1.746.702c-.456.468-.684 1.062-.684 1.782s.228 1.314.684 1.782zm17.743-6.534c1.032 0 1.854.336 2.466 1.008.624.672.936 1.572.936 2.7V30h-2.322v-5.382c0-.54-.132-.96-.396-1.26-.264-.3-.636-.45-1.116-.45-.528 0-.942.174-1.242.522-.288.348-.432.852-.432 1.512V30h-2.322v-5.382c0-.54-.132-.96-.396-1.26-.264-.3-.636-.45-1.116-.45-.516 0-.93.174-1.242.522-.3.348-.45.852-.45 1.512V30h-2.322v-9h2.322v.954c.54-.804 1.374-1.206 2.502-1.206 1.104 0 1.92.432 2.448 1.296.6-.864 1.494-1.296 2.682-1.296zm10.252 0c1.212 0 2.244.462 3.096 1.386.864.912 1.296 2.034 1.296 3.366 0 1.332-.432 2.46-1.296 3.384-.852.912-1.884 1.368-3.096 1.368-1.26 0-2.232-.438-2.916-1.314V33.6H38.97V21h2.322v1.062c.684-.876 1.656-1.314 2.916-1.314zm-2.214 6.588c.468.468 1.062.702 1.782.702s1.314-.234 1.782-.702c.48-.48.72-1.092.72-1.836s-.24-1.35-.72-1.818c-.468-.48-1.062-.72-1.782-.72s-1.314.24-1.782.72c-.468.468-.702 1.074-.702 1.818s.234 1.356.702 1.836zM49.878 30V16.86H52.2V30h-2.322zm5.24-10.08a1.411 1.411 0 01-1.423-1.422c0-.384.138-.72.414-1.008a1.382 1.382 0 011.008-.432c.396 0 .732.144 1.008.432.288.288.432.624.432 1.008s-.144.72-.432 1.008a1.372 1.372 0 01-1.008.414zM53.964 30v-9h2.322v9h-2.322zm10.927-9h2.322v9h-2.322v-1.062c-.696.876-1.674 1.314-2.934 1.314-1.2 0-2.232-.456-3.096-1.368-.852-.924-1.278-2.052-1.278-3.384 0-1.332.426-2.454 1.278-3.366.864-.924 1.896-1.386 3.096-1.386 1.26 0 2.238.438 2.934 1.314V21zm-4.284 6.336c.468.468 1.062.702 1.782.702s1.314-.234 1.782-.702c.48-.48.72-1.092.72-1.836s-.24-1.35-.72-1.818c-.468-.48-1.062-.72-1.782-.72s-1.314.24-1.782.72c-.468.468-.702 1.074-.702 1.818s.234 1.356.702 1.836zm13.356-6.588c.984 0 1.794.33 2.43.99.648.66.972 1.572.972 2.736V30h-2.322v-5.238c0-.6-.162-1.056-.486-1.368-.324-.324-.756-.486-1.296-.486-.6 0-1.08.186-1.44.558-.36.372-.54.93-.54 1.674V30H68.96v-9h2.322v1.008c.564-.84 1.458-1.26 2.682-1.26zm9.309 9.504c-1.356 0-2.49-.456-3.402-1.368-.9-.912-1.35-2.04-1.35-3.384 0-1.344.45-2.472 1.35-3.384.912-.912 2.046-1.368 3.402-1.368.876 0 1.674.21 2.394.63.72.42 1.266.984 1.638 1.692l-1.998 1.17a2.023 2.023 0 00-.828-.882 2.332 2.332 0 00-1.224-.324c-.696 0-1.272.234-1.728.702-.456.456-.684 1.044-.684 1.764 0 .708.228 1.296.684 1.764.456.456 1.032.684 1.728.684.468 0 .882-.102 1.242-.306.372-.216.648-.51.828-.882l2.016 1.152a4.575 4.575 0 01-1.674 1.71c-.72.42-1.518.63-2.394.63zm6.757-3.798c.312 1.128 1.158 1.692 2.538 1.692.888 0 1.56-.3 2.016-.9l1.872 1.08c-.888 1.284-2.196 1.926-3.924 1.926-1.488 0-2.682-.45-3.582-1.35-.9-.9-1.35-2.034-1.35-3.402 0-1.356.444-2.484 1.332-3.384.888-.912 2.028-1.368 3.42-1.368 1.32 0 2.406.456 3.258 1.368.864.912 1.296 2.04 1.296 3.384 0 .3-.03.618-.09.954H90.03zm-.036-1.8h4.59c-.132-.612-.408-1.068-.828-1.368-.408-.3-.876-.45-1.404-.45-.624 0-1.14.162-1.548.486-.408.312-.678.756-.81 1.332zM101.903 14.903C103.172 13.634 104.704 13 106.5 13c1.796 0 3.328.634 4.597 1.903 1.269 1.27 1.903 2.801 1.903 4.597 0 1.796-.634 3.328-1.903 4.597C109.828 25.366 108.296 26 106.5 26c-1.796 0-3.328-.634-4.597-1.903-1.269-1.27-1.903-2.801-1.903-4.597 0-1.796.634-3.328 1.903-4.597zM106.5 25.39c1.604 0 2.975-.575 4.112-1.724 1.137-1.15 1.706-2.538 1.706-4.166 0-1.628-.569-3.017-1.706-4.166-1.137-1.149-2.508-1.723-4.112-1.723-1.616 0-2.993.574-4.13 1.723-1.137 1.15-1.706 2.538-1.706 4.166 0 1.628.569 3.017 1.706 4.166 1.137 1.149 2.514 1.724 4.13 1.724zm2.783-7.003c0 .862-.329 1.526-.987 1.993l1.364 2.442h-2.065l-.951-1.975h-.683v1.975h-1.921v-6.644h2.675c.731 0 1.341.21 1.832.629.491.407.736.933.736 1.58zm-3.322-.467v1.31h.593c.251 0 .449-.06.592-.179a.578.578 0 00.216-.467c0-.443-.269-.664-.808-.664h-.593z" fill="currentColor"/></symbol><symbol id="logo-tm"><path d="M7.903 21.026v10L20 37v10L0 37V7l20 10v10L7.903 21.026zM40 7v10L20 27V17L40 7zM20 37l20-10v10L20 47V37zM48.903 1.903C50.173.634 51.704 0 53.5 0c1.796 0 3.328.634 4.597 1.903C59.366 3.173 60 4.704 60 6.5c0 1.796-.634 3.328-1.903 4.597C56.827 12.366 55.296 13 53.5 13c-1.796 0-3.328-.634-4.597-1.903C47.634 9.827 47 8.296 47 6.5c0-1.796.634-3.328 1.903-4.597zM53.5 12.39c1.604 0 2.975-.575 4.112-1.724 1.137-1.15 1.706-2.538 1.706-4.166 0-1.628-.569-3.017-1.706-4.166C56.475 1.185 55.104.61 53.5.61c-1.616 0-2.993.575-4.13 1.724-1.137 1.15-1.706 2.538-1.706 4.166 0 1.628.569 3.017 1.706 4.166 1.137 1.149 2.514 1.723 4.13 1.723zm2.783-7.003c0 .862-.329 1.526-.987 1.993l1.364 2.442h-2.065l-.951-1.975h-.683v1.975h-1.92V3.178h2.675c.73 0 1.34.21 1.831.629.49.407.736.933.736 1.58zm-3.322-.467v1.31h.593c.251 0 .449-.06.592-.179a.579.579 0 00.216-.467c0-.443-.27-.664-.808-.664h-.593z" fill="currentColor"/></symbol><symbol id="logo"><path d="M9.885 17.532v12.5l15.13 7.468V50L0 37.5V0l25.015 12.5V25l-15.13-7.468zM50.03 0v12.5L25.016 25V12.5L50.031 0zM25.015 37.5L50.031 25v12.5L25.015 50V37.5z" fill="currentColor"/></symbol><symbol id="products"><path display="var(--is-visible--xxxl)" d="M5 9.6l-.302-.686-.448.197V9.6H5zm30 0h.75v-.49l-.448-.196L35 9.6zM20 36l-.302.687.302.132.302-.133L20 36zm15-6.6l.302.687.448-.198V29.4H35zm-30 0h-.75v.49l.448.197L5 29.4zM20 3l.302-.686L20 2.18l-.302.133L20 3zM4.698 10.287l15 6.6.604-1.373-15-6.6-.604 1.373zm15.604 6.6l15-6.6-.604-1.373-15 6.6.604 1.373zM19.25 16.2V36h1.5V16.2h-1.5zm15.448 12.514l-15 6.6.604 1.373 15-6.6-.604-1.373zm-14.396 6.6l-15-6.6-.604 1.373 15 6.6.604-1.373zM5.75 29.4V9.6h-1.5v19.8h1.5zm-.448-19.113l15-6.6-.604-1.373-15 6.6.604 1.373zm14.396-6.6l15 6.6.604-1.373-15-6.6-.604 1.372zM34.25 9.6v19.8h1.5V9.6h-1.5z" fill="currentColor"/><path display="var(--is-visible--md-xxl)" d="M10 13.4l-.302-.687-.448.198v.489H10zm20 0h.75v-.49l-.448-.197L30 13.4zM20 31l-.302.686.302.133.302-.133L20 31zm10-4.4l.302.686.448-.197V26.6H30zm-20 0h-.75v.49l.448.197L10 26.6zM20 9l.302-.686L20 8.18l-.302.133L20 9zM9.698 14.086l10 4.4.604-1.373-10-4.4-.604 1.373zm10.604 4.4l10-4.4-.604-1.373-10 4.4.604 1.373zM19.25 17.8V31h1.5V17.8h-1.5zm10.448 8.113l-10 4.4.604 1.373 10-4.4-.604-1.373zm-9.396 4.4l-10-4.4-.604 1.373 10 4.4.604-1.372zM10.75 26.6V13.4h-1.5v13.2h1.5zm-.448-12.514l10-4.4-.604-1.372-10 4.4.604 1.372zm9.396-4.4l10 4.4.604-1.373-10-4.4-.604 1.373zM29.25 13.4v13.2h1.5V13.4h-1.5z" fill="currentColor"/><path display="var(--is-visible--sm-down)" d="M13 15.2l-.294-.69-.456.195v.495H13zm15 0h.75v-.495l-.456-.195-.294.69zM20.5 28l-.294.69.294.125.294-.125L20.5 28zm7.5-3.2l.294.69.456-.195V24.8H28zm-15 0h-.75v.495l.456.195.294-.69zM20.5 12l.294-.69-.294-.125-.294.125.294.69zm-7.794 3.89l7.5 3.2.588-1.38-7.5-3.2-.588 1.38zm8.088 3.2l7.5-3.2-.588-1.38-7.5 3.2.588 1.38zm-1.044-.69V28h1.5v-9.6h-1.5zm7.956 5.71l-7.5 3.2.588 1.38 7.5-3.2-.588-1.38zm-6.912 3.2l-7.5-3.2-.588 1.38 7.5 3.2.588-1.38zM13.75 24.8v-9.6h-1.5v9.6h1.5zm-.456-8.91l7.5-3.2-.588-1.38-7.5 3.2.588 1.38zm6.912-3.2l7.5 3.2.588-1.38-7.5-3.2-.588 1.38zm7.044 2.51v9.6h1.5v-9.6h-1.5z" fill="currentColor"/></symbol><symbol id="refresh"><path fill="none" d="M2.429 5.111c1.041-2.14 3.205-3.61 5.704-3.61C11.65 1.5 14.5 4.41 14.5 8c0 3.589-2.85 6.5-6.367 6.5-2.5 0-4.663-1.472-5.704-3.612m0-5.778L1.5 1.964m.929 3.147h3.25" stroke="currentColor" stroke-width="1.5"/></symbol><symbol id="search"><path display="var(--is-visible--xs-xxl)" d="M23 23l-4.295-4.295m2.01-4.848a6.857 6.857 0 11-13.715 0 6.857 6.857 0 0113.714 0z" fill="none" stroke="currentColor" stroke-width="1.5" stroke-miterlimit="10" stroke-linecap="round" stroke-linejoin="round"/><path display="var(--is-visible--xxxl)" d="M27 27l-6.442-6.442m3.013-7.272c0 5.68-4.605 10.285-10.285 10.285S3 18.966 3 13.286 7.605 3 13.286 3c5.68 0 10.285 4.605 10.285 10.286z" fill="none" stroke="currentColor" stroke-width="1.5" stroke-miterlimit="10" stroke-linecap="round" stroke-linejoin="round"/></symbol><symbol id="service-icon-1"><path d="M0 10L20 0v20L0 30V10z" fill="url(#paint0_linear)"/><path d="M20 20l20-10v20L20 40V20z" fill="url(#paint1_linear)"/><path d="M20 20L0 10v20l20 10V20z" fill="#0426A0"/></symbol><symbol id="service-icon-2"><path d="M0 20l20 10V10L0 0v20z" fill="#0426A0"/><path d="M40 20L20 10v20l20 10V20z" fill="url(#paint0_linear)"/><path d="M20 30L0 40V20l20-10v20z" fill="url(#paint1_linear)"/><path d="M20 10L40 0v20L20 30V10z" fill="url(#paint2_linear)"/></symbol><symbol id="service-icon-3"><path d="M0 10L20 0v20L0 30V10z" fill="#0426A0"/><path d="M20 20l20-10v20L20 40V20z" fill="url(#paint0_linear)"/><path d="M20 10L40 0v20L20 30V10z" fill="url(#paint1_linear)"/><path d="M0 20l20-10v20L0 40V20z" fill="url(#paint2_linear)"/></symbol><symbol id="service-icon-4"><path d="M20 10L40 0v20L20 30V10z" fill="url(#paint0_linear)"/><path d="M20 20l20-10v20L20 40V20z" fill="#0426A0"/><path d="M20 10L10 5v20l10 5V10z" fill="url(#paint1_linear)"/><path d="M20 20L0 10v20l20 10V20z" fill="url(#paint2_linear)"/></symbol><symbol id="service-icon-5"><path d="M0 10L20 0v20L0 30V10z" fill="url(#paint0_linear)"/><path d="M20 20l20-10v20L20 40V20z" fill="url(#paint1_linear)"/><path d="M20 20L0 10v20l20 10V20z" fill="#0426A0"/></symbol><symbol id="service-icon-6"><path d="M0 10L20 0v20L0 30V10z" fill="#0426A0"/><path d="M20 20l20-10v20L20 40V20z" fill="url(#paint0_linear)"/><path d="M20 10L40 0v20L20 30V10z" fill="url(#paint1_linear)"/><path d="M0 20l20-10v20L0 40V20z" fill="url(#paint2_linear)"/></symbol><symbol id="social-facebook"><path display="var(--is-visible--xs-xxl)" d="M13.645 22l-.02-6.125H11V13.25h2.625V11.5c0-2.362 1.463-3.5 3.57-3.5 1.009 0 1.876.075 2.129.109v2.468h-1.461c-1.146 0-1.368.545-1.368 1.344v1.329h3.255l-.875 2.625h-2.38V22h-2.85z" fill="currentColor"/><path display="var(--is-visible--xxxl)" d="M11.968 25.5l-.03-9.188H8v-3.937h3.938V9.75c0-3.543 2.193-5.25 5.354-5.25 1.513 0 2.815.113 3.194.163v3.702l-2.192.001c-1.719 0-2.052.817-2.052 2.016v1.993h4.883l-1.313 3.938h-3.57V25.5h-4.274z" fill="#0426A0"/></symbol><symbol id="social-linkedin"><path display="var(--is-visible--xs-xxl)" d="M21.304 8H8.61A.596.596 0 008 8.613v12.862c0 .262.26.525.609.525H21.39a.596.596 0 00.609-.613V8.614c-.087-.35-.348-.613-.696-.613zm-9.217 11.9h-2v-6.65h2.087v6.65h-.087zm-.957-7.525c-.695 0-1.217-.613-1.217-1.225 0-.7.522-1.225 1.217-1.225.696 0 1.218.525 1.218 1.225-.087.612-.609 1.225-1.218 1.225zm8.696 7.525H17.74v-3.237c0-.788 0-1.75-1.043-1.75-1.044 0-1.218.874-1.218 1.75v3.325h-2.087V13.25h2v.875c.261-.525.957-1.05 1.913-1.05 2.087 0 2.435 1.4 2.435 3.15V19.9h.087z" fill="currentColor"/><path display="var(--is-visible--xxxl)" d="M23.956 4.5H4.913A.894.894 0 004 5.419v19.294c0 .393.391.787.913.787h19.174a.894.894 0 00.913-.919V5.42c-.13-.525-.522-.919-1.044-.919zM10.13 22.35h-3v-9.975h3.13v9.975h-.13zM8.696 11.062c-1.044 0-1.826-.918-1.826-1.837 0-1.05.782-1.837 1.826-1.837 1.043 0 1.826.787 1.826 1.837-.13.919-.913 1.838-1.826 1.838zM21.739 22.35h-3.13v-4.856c0-1.181 0-2.625-1.566-2.625-1.565 0-1.826 1.312-1.826 2.625v4.987h-3.13V12.375h3v1.313c.391-.788 1.435-1.575 2.87-1.575 3.13 0 3.652 2.1 3.652 4.724v5.513h.13z" fill="#0426A0"/></symbol><symbol id="social-twitter"><path display="var(--is-visible--xs-xxl)" d="M22.77 10.385c-.555.277-1.108.369-1.755.461.646-.37 1.108-.923 1.293-1.661-.554.369-1.2.553-1.939.738A3.223 3.223 0 0018.154 9c-1.57 0-2.954 1.385-2.954 3.046 0 .277 0 .462.092.646-2.492-.092-4.8-1.292-6.277-3.138-.277.461-.369.923-.369 1.57 0 1.014.554 1.938 1.385 2.491-.462 0-.923-.184-1.385-.369a2.98 2.98 0 002.4 2.954c-.277.092-.554.092-.83.092-.185 0-.37 0-.554-.092a2.99 2.99 0 002.861 2.123c-1.015.83-2.308 1.292-3.785 1.292H8C9.385 20.446 10.954 21 12.615 21c5.539 0 8.585-4.615 8.585-8.585v-.369c.646-.461 1.2-1.015 1.57-1.661z" fill="currentColor"/><path display="var(--is-visible--xxxl)" d="M26.654 8.077c-.83.415-1.662.554-2.63.692.968-.554 1.66-1.384 1.938-2.492-.831.554-1.8.83-2.908 1.108C22.224 6.554 20.977 6 19.73 6 17.377 6 15.3 8.077 15.3 10.57c0 .415 0 .691.138.969C11.7 11.4 8.238 9.6 6.024 6.83c-.415.692-.554 1.384-.554 2.354 0 1.523.831 2.907 2.077 3.738-.692 0-1.384-.277-2.077-.554 0 2.216 1.523 4.016 3.6 4.431-.415.139-.83.139-1.246.139-.277 0-.554 0-.83-.139.553 1.8 2.215 3.185 4.292 3.185-1.523 1.246-3.462 1.938-5.677 1.938H4.5C6.577 23.17 8.93 24 11.423 24 19.731 24 24.3 17.077 24.3 11.123v-.554c.97-.692 1.8-1.523 2.354-2.492z" fill="#0426A0"/></symbol><symbol id="zoom-in-xs"><path d="M10 17V3m-7 7h14" fill="none" stroke="currentColor" stroke-width="1.5"/></symbol><symbol id="zoom-in"><path d="M15 23V7m-8 8h16" fill="none" stroke="currentColor" stroke-width="1.5"/></symbol><symbol id="zoom-out-xs"><path d="M3 10h14" fill="none" stroke="currentColor" stroke-width="1.5"/></symbol><symbol id="zoom-out"><path d="M7 15h16" fill="none" stroke="currentColor" stroke-width="1.5"/></symbol></svg>