<svg width="1440" height="591" fill="none" xmlns="http://www.w3.org/2000/svg"><path opacity=".5" d="M1080 1l.22-.448-.22-.112-.22.112.22.448zm360 180h.5v-.309l-.28-.139-.22.448zm-720 0l-.224.447.224.112.224-.112L720 181zM360 1l.224-.448-.724-.361V1h.5zm0 360h-.5v.309l.276.138L360 361zm360 180l-.224.447.224.112.224-.112L720 541zm360-180l.22-.447-.22-.112-.22.112.22.447zm360 180l-.22.447.72.362V541h-.5zM1079.78 1.447l360 180 .44-.895-360-180-.44.895zm-359.556 180l359.996-180-.44-.895-360.004 180 .448.895zm-360.448-180l360 180 .448-.895-360-180-.448.895zM360.5 361V1h-1v360h1zm359.724 179.553l-360-180-.448.894 360 180 .448-.894zm359.556-180l-360.004 180 .448.894 359.996-180-.44-.894zm360.44 180l-360-180-.44.894 360 180 .44-.894zM1439.5 181v360h1V181h-1z" fill="#E8E8E8"/><rect width="2" height="180" rx="1" transform="matrix(-1 0 0 1 221 311)" fill="url(#paint0_linear)"/><rect width="2" height="180" rx="1" transform="matrix(-1 0 0 1 241 301)" fill="url(#paint1_linear)"/><rect width="2" height="180" rx="1" transform="matrix(-1 0 0 1 261 291)" fill="url(#paint2_linear)"/><rect width="2" height="180" rx="1" transform="matrix(-1 0 0 1 281 281)" fill="url(#paint3_linear)"/><rect width="2" height="180" rx="1" transform="matrix(-1 0 0 1 301 271)" fill="url(#paint4_linear)"/><rect width="2" height="180" rx="1" transform="matrix(-1 0 0 1 321 261)" fill="url(#paint5_linear)"/><rect width="2" height="180" rx="1" transform="matrix(-1 0 0 1 341 251)" fill="url(#paint6_linear)"/><rect width="2" height="180" rx="1" transform="matrix(-1 0 0 1 201 321)" fill="url(#paint7_linear)"/><rect width="2" height="180" rx="1" transform="matrix(-1 0 0 1 181 331)" fill="url(#paint8_linear)"/><rect width="2" height="180" rx="1" transform="matrix(-1 0 0 1 161 341)" fill="url(#paint9_linear)"/><rect width="2" height="180" rx="1" transform="matrix(-1 0 0 1 141 351)" fill="url(#paint10_linear)"/><rect width="2" height="180" rx="1" transform="matrix(-1 0 0 1 121 361)" fill="url(#paint11_linear)"/><rect width="2" height="180" rx="1" transform="matrix(-1 0 0 1 101 371)" fill="url(#paint12_linear)"/><rect width="2" height="180" rx="1" transform="matrix(-1 0 0 1 81 381)" fill="url(#paint13_linear)"/><rect width="2" height="180" rx="1" transform="matrix(-1 0 0 1 61 391)" fill="url(#paint14_linear)"/><rect width="2" height="180" rx="1" transform="matrix(-1 0 0 1 41 401)" fill="url(#paint15_linear)"/><rect width="2" height="180" rx="1" transform="matrix(-1 0 0 1 21 411)" fill="url(#paint16_linear)"/><rect x="479" y="301" width="2" height="180" rx="1" fill="url(#paint17_linear)"/><rect x="459" y="291" width="2" height="180" rx="1" fill="url(#paint18_linear)"/><rect x="439" y="281" width="2" height="180" rx="1" fill="url(#paint19_linear)"/><rect x="419" y="271" width="2" height="180" rx="1" fill="url(#paint20_linear)"/><rect x="399" y="261" width="2" height="180" rx="1" fill="url(#paint21_linear)"/><rect x="379" y="251" width="2" height="180" rx="1" fill="url(#paint22_linear)"/><rect x="359" y="241" width="2" height="180" rx="1" fill="url(#paint23_linear)"/><defs><linearGradient id="paint0_linear" x1="1" y1="52.941" x2="1" y2="180" gradientUnits="userSpaceOnUse"><stop stop-color="#E8E8E8"/><stop offset="1" stop-color="#E8E8E8" stop-opacity="0"/></linearGradient><linearGradient id="paint1_linear" x1="1" y1="52.941" x2="1" y2="180" gradientUnits="userSpaceOnUse"><stop stop-color="#E8E8E8"/><stop offset="1" stop-color="#E8E8E8" stop-opacity="0"/></linearGradient><linearGradient id="paint2_linear" x1="1" y1="52.941" x2="1" y2="180" gradientUnits="userSpaceOnUse"><stop stop-color="#E8E8E8"/><stop offset="1" stop-color="#E8E8E8" stop-opacity="0"/></linearGradient><linearGradient id="paint3_linear" x1="1" y1="52.941" x2="1" y2="180" gradientUnits="userSpaceOnUse"><stop stop-color="#E8E8E8"/><stop offset="1" stop-color="#E8E8E8" stop-opacity="0"/></linearGradient><linearGradient id="paint4_linear" x1="1" y1="52.941" x2="1" y2="180" gradientUnits="userSpaceOnUse"><stop stop-color="#E8E8E8"/><stop offset="1" stop-color="#E8E8E8" stop-opacity="0"/></linearGradient><linearGradient id="paint5_linear" x1="1" y1="52.941" x2="1" y2="180" gradientUnits="userSpaceOnUse"><stop stop-color="#E8E8E8"/><stop offset="1" stop-color="#E8E8E8" stop-opacity="0"/></linearGradient><linearGradient id="paint6_linear" x1="1" y1="52.941" x2="1" y2="180" gradientUnits="userSpaceOnUse"><stop stop-color="#E8E8E8"/><stop offset="1" stop-color="#E8E8E8" stop-opacity="0"/></linearGradient><linearGradient id="paint7_linear" x1="1" y1="52.941" x2="1" y2="180" gradientUnits="userSpaceOnUse"><stop stop-color="#E8E8E8"/><stop offset="1" stop-color="#E8E8E8" stop-opacity="0"/></linearGradient><linearGradient id="paint8_linear" x1="1" y1="52.941" x2="1" y2="180" gradientUnits="userSpaceOnUse"><stop stop-color="#E8E8E8"/><stop offset="1" stop-color="#E8E8E8" stop-opacity="0"/></linearGradient><linearGradient id="paint9_linear" x1="1" y1="52.941" x2="1" y2="180" gradientUnits="userSpaceOnUse"><stop stop-color="#E8E8E8"/><stop offset="1" stop-color="#E8E8E8" stop-opacity="0"/></linearGradient><linearGradient id="paint10_linear" x1="1" y1="52.941" x2="1" y2="180" gradientUnits="userSpaceOnUse"><stop stop-color="#E8E8E8"/><stop offset="1" stop-color="#E8E8E8" stop-opacity="0"/></linearGradient><linearGradient id="paint11_linear" x1="1" y1="52.941" x2="1" y2="180" gradientUnits="userSpaceOnUse"><stop stop-color="#E8E8E8"/><stop offset="1" stop-color="#E8E8E8" stop-opacity="0"/></linearGradient><linearGradient id="paint12_linear" x1="1" y1="52.941" x2="1" y2="180" gradientUnits="userSpaceOnUse"><stop stop-color="#E8E8E8"/><stop offset="1" stop-color="#E8E8E8" stop-opacity="0"/></linearGradient><linearGradient id="paint13_linear" x1="1" y1="52.941" x2="1" y2="180" gradientUnits="userSpaceOnUse"><stop stop-color="#E8E8E8"/><stop offset="1" stop-color="#E8E8E8" stop-opacity="0"/></linearGradient><linearGradient id="paint14_linear" x1="1" y1="52.941" x2="1" y2="180" gradientUnits="userSpaceOnUse"><stop stop-color="#E8E8E8"/><stop offset="1" stop-color="#E8E8E8" stop-opacity="0"/></linearGradient><linearGradient id="paint15_linear" x1="1" y1="52.941" x2="1" y2="180" gradientUnits="userSpaceOnUse"><stop stop-color="#E8E8E8"/><stop offset="1" stop-color="#E8E8E8" stop-opacity="0"/></linearGradient><linearGradient id="paint16_linear" x1="1" y1="52.941" x2="1" y2="180" gradientUnits="userSpaceOnUse"><stop stop-color="#E8E8E8"/><stop offset="1" stop-color="#E8E8E8" stop-opacity="0"/></linearGradient><linearGradient id="paint17_linear" x1="480" y1="353.941" x2="480" y2="481" gradientUnits="userSpaceOnUse"><stop stop-color="#E8E8E8"/><stop offset="1" stop-color="#E8E8E8" stop-opacity="0"/></linearGradient><linearGradient id="paint18_linear" x1="460" y1="343.941" x2="460" y2="471" gradientUnits="userSpaceOnUse"><stop stop-color="#E8E8E8"/><stop offset="1" stop-color="#E8E8E8" stop-opacity="0"/></linearGradient><linearGradient id="paint19_linear" x1="440" y1="333.941" x2="440" y2="461" gradientUnits="userSpaceOnUse"><stop stop-color="#E8E8E8"/><stop offset="1" stop-color="#E8E8E8" stop-opacity="0"/></linearGradient><linearGradient id="paint20_linear" x1="420" y1="323.941" x2="420" y2="451" gradientUnits="userSpaceOnUse"><stop stop-color="#E8E8E8"/><stop offset="1" stop-color="#E8E8E8" stop-opacity="0"/></linearGradient><linearGradient id="paint21_linear" x1="400" y1="313.941" x2="400" y2="441" gradientUnits="userSpaceOnUse"><stop stop-color="#E8E8E8"/><stop offset="1" stop-color="#E8E8E8" stop-opacity="0"/></linearGradient><linearGradient id="paint22_linear" x1="380" y1="303.941" x2="380" y2="431" gradientUnits="userSpaceOnUse"><stop stop-color="#E8E8E8"/><stop offset="1" stop-color="#E8E8E8" stop-opacity="0"/></linearGradient><linearGradient id="paint23_linear" x1="360" y1="293.941" x2="360" y2="421" gradientUnits="userSpaceOnUse"><stop stop-color="#E8E8E8"/><stop offset="1" stop-color="#E8E8E8" stop-opacity="0"/></linearGradient></defs></svg>